#!OML:ASF H:\BabyWalks\Project 1\Capture day 1\Session 1\baby.ASF
:FULLY-SPECIFIED
:DEGREES
319
root -9.76447 17.2974 -1.04142 -6.34001 84.1677 -12.4309
lowerback 23.7015 1.38243 3.636
upperback 6.36818 3.25348 2.06925
thorax -6.10876 1.73407 -0.764705
lowerneck 0.706027 1.45665 9.46151
upperneck -2.01589 1.91683 -10.9577
head -0.503626 1.00318 -4.851
rclavicle -2.54444e-014 -2.22639e-014
rhumerus -40.6982 5.83027 -78.4647
rradius 51.8579
rwrist -9.6797
rhand -16.479 -19.2532
rfingers 7.12502
rthumb 9.73807 -49.008
lclavicle -2.54444e-014 -2.22639e-014
lhumerus -55.6246 -8.0121 78.6844
lradius 40.2261
lwrist -6.75481
lhand 8.06552 8.32507
lfingers 7.12502
lthumb 33.2893 35.2638
rfemur -15.749 7.1292 21.1445
rtibia 46.718
rfoot -21.6766 14.2437
rtoes -6.02158
lfemur -41.1784 7.74072 -19.3401
ltibia 42.4497
lfoot -20.5263 -15.5383
ltoes -8.63642
320
root -9.61103 17.2831 -1.04567 -6.60138 83.755 -12.6552
lowerback 23.9649 1.52253 3.5106
upperback 6.37859 3.40407 1.91433
thorax -6.22299 1.80461 -0.913601
lowerneck 0.768242 1.42909 9.30994
upperneck -2.13371 1.87886 -10.3848
head -0.560218 0.979878 -4.65063
rclavicle 2.62396e-014 -5.56597e-015
rhumerus -40.4187 5.90674 -78.6915
rradius 52.2931
rwrist -9.57107
rhand -16.1348 -19.2108
rfingers 7.12502
rthumb 10.0701 -48.9499
lclavicle 2.62396e-014 -5.56597e-015
lhumerus -55.8256 -7.7621 78.1001
lradius 40.0609
lwrist -6.68434
lhand 8.47368 8.48666
lfingers 7.12502
lthumb 33.6773 35.3415
rfemur -15.3529 7.53286 21.2744
rtibia 47.0148
rfoot -21.6628 14.172
rtoes -6.5491
lfemur -41.2165 7.61051 -19.2587
ltibia 41.2812
lfoot -20.2152 -14.6076
ltoes -8.50335
321
root -9.45806 17.2628 -1.04975 -6.96913 83.3392 -12.9892
lowerback 24.2287 1.66673 3.37952
upperback 6.39462 3.55852 1.76766
thorax -6.33137 1.87743 -1.0526
lowerneck 0.794777 1.39793 9.17334
upperneck -2.28391 1.83349 -9.85348
head -0.620287 0.952447 -4.46595
rclavicle -2.8625e-014 -5.56597e-015
rhumerus -40.1575 6.02307 -78.9198
rradius 52.7371
rwrist -9.47321
rhand -15.8705 -19.0931
rfingers 7.12502
rthumb 10.3251 -48.8197
lclavicle -2.8625e-014 -5.56597e-015
lhumerus -55.914 -7.50684 77.4867
lradius 39.8758
lwrist -6.59922
lhand 8.85379 8.67103
lfingers 7.12502
lthumb 34.0384 35.4463
rfemur -14.995 7.98629 21.4238
rtibia 47.3907
rfoot -21.6964 14.1077
rtoes -7.05364
lfemur -41.2703 7.4026 -19.0952
ltibia 40.2937
lfoot -19.995 -13.6689
ltoes -8.42821
322
root -9.30614 17.2359 -1.05341 -7.39218 82.9365 -13.3984
lowerback 24.4784 1.81027 3.23944
upperback 6.41257 3.70888 1.62858
thorax -6.43123 1.9486 -1.1777
lowerneck 0.80843 1.36166 9.10084
upperneck -2.41409 1.79382 -9.03757
head -0.749549 0.917783 -4.67218
rclavicle 3.06128e-014 -7.95139e-015
rhumerus -39.9131 6.17562 -79.1511
rradius 53.1805
rwrist -9.38303
rhand -15.6808 -18.9222
rfingers 7.12502
rthumb 10.5081 -48.6396
lclavicle 3.06128e-014 -7.95139e-015
lhumerus -55.8866 -7.23764 76.8423
lradius 39.6696
lwrist -6.51572
lhand 9.20464 8.85003
lfingers 7.12502
lthumb 34.3716 35.5505
rfemur -14.6965 8.47185 21.5839
rtibia 47.8524
rfoot -21.7778 14.0654
rtoes -7.56318
lfemur -41.3722 7.12004 -18.8675
ltibia 39.4996
lfoot -19.8075 -12.7509
ltoes -8.40025
323
root -9.15509 17.2017 -1.05663 -7.88876 82.5518 -13.9106
lowerback 24.7006 1.94758 3.09545
upperback 6.43268 3.84874 1.49815
thorax -6.51566 2.01514 -1.28793
lowerneck 0.764788 1.32971 8.98416
upperneck -2.63579 1.7426 -8.60919
head -0.822929 0.886589 -4.49377
rclavicle 2.0276e-014 -1.74931e-014
rhumerus -39.6845 6.36905 -79.3877
rradius 53.6213
rwrist -9.31564
rhand -15.5637 -18.7165
rfingers 7.12502
rthumb 10.621 -48.4281
lclavicle 2.0276e-014 -1.74931e-014
lhumerus -55.7383 -6.93841 76.1667
lradius 39.4324
lwrist -6.45032
lhand 9.50265 9.0077
lfingers 7.12502
lthumb 34.6545 35.6438
rfemur -14.4647 8.97936 21.7543
rtibia 48.4023
rfoot -21.8994 14.0614
rtoes -8.06571
lfemur -41.5465 6.7804 -18.5863
ltibia 38.9229
lfoot -19.5878 -11.8737
ltoes -8.51272
324
root -9.00523 17.1601 -1.0595 -8.45687 82.1968 -14.5362
lowerback 24.89 2.0714 2.95473
upperback 6.4499 3.97018 1.37508
thorax -6.58744 2.07295 -1.38602
lowerneck 0.689887 1.30195 8.86621
upperneck -2.89438 1.69514 -8.20912
head -0.901557 0.857045 -4.32675
rclavicle 1.66979e-014 3.18055e-014
rhumerus -39.4726 6.60298 -79.6315
rradius 54.0604
rwrist -9.29039
rhand -15.5295 -18.4895
rfingers 7.12502
rthumb 10.654 -48.1994
lclavicle 1.66979e-014 3.18055e-014
lhumerus -55.4734 -6.61238 75.4747
lradius 39.1733
lwrist -6.40338
lhand 9.72199 9.19435
lfingers 7.12502
lthumb 34.8626 35.7824
rfemur -14.3164 9.49339 21.9303
rtibia 49.0444
rfoot -22.0502 14.1083
rtoes -8.55177
lfemur -41.8263 6.40533 -18.2715
ltibia 38.5994
lfoot -19.2483 -11.0893
ltoes -8.80056
325
root -8.85668 17.1108 -1.06216 -9.05848 81.8789 -15.2413
lowerback 25.0432 2.1763 2.81352
upperback 6.46396 4.0654 1.25965
thorax -6.64595 2.11834 -1.46678
lowerneck 0.591972 1.28445 8.74558
upperneck -3.19451 1.6601 -7.84438
head -0.987709 0.833804 -4.17335
rclavicle -1.90833e-014 3.18055e-015
rhumerus -39.2708 6.88014 -79.8803
rradius 54.4919
rwrist -9.29496
rhand -15.5601 -18.2888
rfingers 7.12502
rthumb 10.6246 -48.0002
lclavicle -1.90833e-014 3.18055e-015
lhumerus -55.1013 -6.24398 74.7706
lradius 38.8531
lwrist -6.4887
lhand 9.74735 9.218
lfingers 7.12502
lthumb 34.8867 35.8005
rfemur -14.2439 10.0005 22.1024
rtibia 49.7447
rfoot -22.2058 14.2079
rtoes -9.02881
lfemur -42.2112 6.02649 -17.9488
ltibia 38.5221
lfoot -18.6192 -10.4525
ltoes -9.20133
326
root -8.70962 17.0527 -1.06472 -9.69908 81.6014 -16.0328
lowerback 25.1646 2.261 2.67957
upperback 6.47054 4.13478 1.1492
thorax -6.69744 2.15113 -1.53764
lowerneck 0.487298 1.27459 8.62998
upperneck -3.53961 1.6352 -7.51847
head -1.08578 0.815971 -4.03644
rclavicle -7.95139e-015 5.24792e-014
rhumerus -39.0855 7.18669 -80.1339
rradius 54.915
rwrist -9.32279
rhand -15.6267 -18.146
rfingers 7.12502
rthumb 10.5602 -47.8607
lclavicle -7.95139e-015 5.24792e-014
lhumerus -54.634 -5.84969 74.0683
lradius 38.5041
lwrist -6.66487
lhand 9.60526 9.14298
lfingers 7.12502
lthumb 34.7518 35.7566
rfemur -14.2528 10.4781 22.2719
rtibia 50.5434
rfoot -22.4176 14.3322
rtoes -9.64104
lfemur -42.7354 5.67515 -17.6376
ltibia 38.8019
lfoot -17.6888 -9.96862
ltoes -9.35469
327
root -8.56431 16.9997 -1.06733 -10.3636 81.3646 -16.8928
lowerback 25.2557 2.32554 2.55291
upperback 6.47256 4.17872 1.04313
thorax -6.73957 2.1717 -1.59915
lowerneck 0.376157 1.27286 8.52313
upperneck -3.92827 1.62117 -7.23659
head -1.19545 0.803982 -3.91841
rclavicle 2.14687e-014 9.93923e-015
rhumerus -38.9117 7.51414 -80.3885
rradius 55.3287
rwrist -9.37241
rhand -15.7202 -18.0808
rfingers 7.12502
rthumb 10.4701 -47.8
lclavicle 2.14687e-014 9.93923e-015
lhumerus -54.07 -5.43199 73.3784
lradius 38.1497
lwrist -6.88621
lhand 9.33546 9.03385
lfingers 7.12502
lthumb 34.4958 35.7062
rfemur -14.3286 10.914 22.4307
rtibia 51.3965
rfoot -22.6389 14.5022
rtoes -10.315
lfemur -43.3592 5.37562 -17.3584
ltibia 39.4649
lfoot -16.6394 -9.65066
ltoes -9.20997
